<svg width="24" height="24" viewBox="0 0 24 24" fill="none" xmlns="http://www.w3.org/2000/svg">
<path d="M0.616235 11.4864C0.616235 8.71326 2.87291 6.45646 5.64701 6.45646H22.8974L18.3183 11.0356L18.7254 11.4427L23.9999 6.16817L18.7255 0.894043L18.3184 1.30148L22.8976 5.87977H5.64701C2.5551 5.87977 0.0408325 8.39533 0.0408325 11.4859V11.544H0.616705V11.4864H0.616235Z" fill="white"/>
<path d="M23.3837 12.5135C23.3837 15.2866 21.1265 17.5434 18.3534 17.5434H1.10293L5.68204 12.9643L5.27495 12.5572L0 17.8318L5.27448 23.1058L5.68157 22.6979L1.10293 18.1198H18.3534C21.4448 18.1198 23.9595 15.6042 23.9595 12.5136V12.4555H23.3837V12.5135Z" fill="white"/>
</svg>
