<svg width="15" height="7" viewBox="0 0 15 7" fill="none" xmlns="http://www.w3.org/2000/svg">
<path d="M14.625 5.87498C14.625 6.03246 14.5624 6.18348 14.4511 6.29483C14.3397 6.40618 14.1887 6.46873 14.0312 6.46873H0.96875C0.811278 6.46873 0.660255 6.40618 0.548905 6.29483C0.437556 6.18348 0.375 6.03246 0.375 5.87498C0.375 5.71751 0.437556 5.56649 0.548905 5.45514C0.660255 5.34379 0.811278 5.28123 0.96875 5.28123H14.0312C14.1887 5.28124 14.3397 5.34379 14.4511 5.45514C14.5624 5.56649 14.625 5.71751 14.625 5.87498ZM0.96875 1.71873H14.0312C14.1887 1.71873 14.3397 1.65618 14.4511 1.54483C14.5624 1.43348 14.625 1.28246 14.625 1.12498C14.625 0.967512 14.5624 0.81649 14.4511 0.70514C14.3397 0.59379 14.1887 0.531235 14.0312 0.531235H0.96875C0.811278 0.531235 0.660255 0.59379 0.548905 0.70514C0.437556 0.81649 0.375 0.967512 0.375 1.12498C0.375 1.28246 0.437556 1.43348 0.548905 1.54483C0.660255 1.65618 0.811278 1.71873 0.96875 1.71873Z" fill="white" fill-opacity="0.5"/>
</svg>
